<svg width="62" height="62" viewBox="0 0 62 62" fill="none" xmlns="http://www.w3.org/2000/svg">
<g clip-path="url(#clip0_5_208)">
<path d="M31 62C31 62 54.25 39.9668 54.25 23.25C54.25 17.0837 51.8005 11.17 47.4402 6.80977C43.08 2.44955 37.1663 0 31 0C24.8337 0 18.92 2.44955 14.5598 6.80977C10.1995 11.17 7.75 17.0837 7.75 23.25C7.75 39.9668 31 62 31 62ZM31 34.875C27.9169 34.875 24.96 33.6502 22.7799 31.4701C20.5998 29.29 19.375 26.3331 19.375 23.25C19.375 20.1669 20.5998 17.21 22.7799 15.0299C24.96 12.8498 27.9169 11.625 31 11.625C34.0831 11.625 37.04 12.8498 39.2201 15.0299C41.4002 17.21 42.625 20.1669 42.625 23.25C42.625 26.3331 41.4002 29.29 39.2201 31.4701C37.04 33.6502 34.0831 34.875 31 34.875Z" fill="#B89B88"/>
</g>
<defs>
<clipPath id="clip0_5_208">
<rect width="62" height="62" fill="white"/>
</clipPath>
</defs>
</svg>
