<svg width="79" height="62" viewBox="0 0 79 62" fill="none" xmlns="http://www.w3.org/2000/svg">
<g clip-path="url(#clip0_5_216)">
<path d="M63.8358 15.4879L58.0717 9.72383C56.7961 8.45939 55.0726 7.74999 53.2764 7.75H25.8124C24.0202 7.75 22.2885 8.46445 21.0171 9.72383L15.253 15.4879H0.963928V46.4516H8.71393C10.8452 46.4516 12.5647 44.732 12.5768 42.6129H13.6788L23.9233 51.8645C27.6651 54.9039 32.86 54.9766 36.7108 52.3246C38.2245 53.6324 39.8592 54.25 41.6878 54.25C43.8917 54.25 45.9624 53.3539 47.5971 51.3438C50.2733 52.3973 53.4338 51.6586 55.3471 49.3094L58.5198 45.398C59.1979 44.5625 59.6217 43.6059 59.8397 42.6129H66.851C66.8631 44.732 68.5948 46.4516 70.7139 46.4516H78.4639V15.4879H63.8358ZM6.77643 42.5766C5.7108 42.5766 4.83893 41.7047 4.83893 40.6391C4.83893 39.5734 5.7108 38.7016 6.77643 38.7016C7.84205 38.7016 8.71393 39.5734 8.71393 40.6391C8.71393 41.7168 7.84205 42.5766 6.77643 42.5766ZM54.003 41.741L50.8424 45.6402C50.5034 46.052 49.8979 46.1246 49.4741 45.7855L46.5799 43.4363L42.9471 47.8563C42.2206 48.7402 41.1307 48.4375 40.7674 48.1469L36.3112 44.3324L34.4221 46.6574C32.7389 48.7281 29.6753 49.043 27.7256 47.4566L15.9432 36.8004H12.5889V21.2883H17.6628L25.1342 13.8289C25.3764 13.732 25.5823 13.6473 25.8245 13.5504H32.6905L28.0042 17.8492C24.444 21.1066 24.2381 26.6043 27.4713 30.116C29.2635 32.0777 34.8823 35.1051 39.7624 30.6488L40.7553 29.7406L53.8577 40.3727C54.2694 40.7117 54.3299 41.3293 54.003 41.741ZM66.8389 36.8004H58.4592C58.1807 36.4613 57.8659 36.1465 57.5268 35.868L45.0905 25.7688L46.6042 24.3883C47.3913 23.6617 47.4518 22.4387 46.7253 21.6516L45.4053 20.2348C44.6788 19.4477 43.4557 19.3992 42.6686 20.1137L35.9842 26.241C34.8339 27.2945 32.8721 27.3793 31.7944 26.241C30.6682 25.0422 30.7651 23.2016 31.9397 22.1359L39.8835 14.8582C40.7796 14.0348 41.9421 13.5867 43.153 13.5867L53.2885 13.5625C53.5428 13.5625 53.785 13.6594 53.9546 13.841L61.426 21.3004H66.8389V36.8004ZM72.6514 42.5766C71.5858 42.5766 70.7139 41.7047 70.7139 40.6391C70.7139 39.5734 71.5858 38.7016 72.6514 38.7016C73.7171 38.7016 74.5889 39.5734 74.5889 40.6391C74.5889 41.7168 73.7171 42.5766 72.6514 42.5766Z" fill="#B89B88"/>
</g>
<defs>
<clipPath id="clip0_5_216">
<rect width="77.5" height="62" fill="white" transform="translate(0.963928)"/>
</clipPath>
</defs>
</svg>
