<svg width="71" height="70" viewBox="0 0 71 70" fill="none" xmlns="http://www.w3.org/2000/svg">
<path d="M35.976 36.25C32.7676 36.25 30.0211 35.1076 27.7364 32.8229C25.4517 30.5382 24.3093 27.7917 24.3093 24.5833V14.375C24.3093 13.1597 24.7351 12.1263 25.5868 11.2746C26.4385 10.4229 27.471 9.99806 28.6843 10C29.4135 10 30.1067 10.1701 30.7639 10.5104C31.4211 10.8507 31.9432 11.3368 32.3301 11.9688C32.719 11.3368 33.2411 10.8507 33.8964 10.5104C34.5517 10.1701 35.2449 10 35.976 10C36.7051 10 37.3983 10.1701 38.0556 10.5104C38.7128 10.8507 39.2349 11.3368 39.6218 11.9688C40.0107 11.3368 40.5328 10.8507 41.1881 10.5104C41.8433 10.1701 42.5365 10 43.2676 10C44.4829 10 45.5164 10.4258 46.3681 11.2775C47.2197 12.1292 47.6446 13.1617 47.6426 14.375V24.5833C47.6426 27.7917 46.5003 30.5382 44.2156 32.8229C41.9308 35.1076 39.1843 36.25 35.976 36.25ZM18.476 59.5833C16.8718 59.5833 15.4981 59.0126 14.3547 57.8713C13.2114 56.7299 12.6407 55.3561 12.6426 53.75V51.4167C12.6426 49.7639 13.0685 48.2443 13.9201 46.8579C14.7718 45.4715 15.9015 44.4147 17.3093 43.6875C20.3232 42.1806 23.3857 41.0499 26.4968 40.2954C29.6079 39.541 32.7676 39.1647 35.976 39.1667C39.1843 39.1667 42.344 39.5439 45.4551 40.2983C48.5663 41.0528 51.6288 42.1825 54.6426 43.6875C56.0524 44.4167 57.1831 45.4744 58.0347 46.8608C58.8864 48.2472 59.3113 49.7658 59.3093 51.4167V53.75C59.3093 55.3542 58.7376 56.7279 57.5943 57.8713C56.451 59.0146 55.0782 59.5853 53.476 59.5833H18.476Z" fill="#B89B88"/>
</svg>
