<svg width="73" height="72" viewBox="0 0 73 72" fill="none" xmlns="http://www.w3.org/2000/svg">
<g clip-path="url(#clip0_5_210)">
<path fill-rule="evenodd" clip-rule="evenodd" d="M31.9323 6.49198C33.1436 6.38177 34.3646 6.51822 35.5217 6.89307C36.6787 7.26793 37.7478 7.87342 38.6643 8.67298L39.1143 9.09298L62.5803 32.562C64.1953 34.1772 65.1356 36.3461 65.2108 38.629C65.286 40.9119 64.4904 43.1379 62.9853 44.856L62.5803 45.288L45.6093 62.259C43.994 63.8739 41.8252 64.8143 39.5423 64.8895C37.2594 64.9647 35.0334 64.1691 33.3153 62.664L32.8833 62.259L9.4113 38.79C8.55173 37.9305 7.87519 36.9057 7.42249 35.7776C6.96979 34.6494 6.75031 33.4413 6.7773 32.226L6.81031 31.611L8.22631 16.056C8.4081 14.0513 9.25666 12.1655 10.6364 10.6999C12.0161 9.23422 13.8473 8.27341 15.8373 7.97098L16.3743 7.90798L31.9323 6.49198ZM24.3933 24.075C23.836 24.6322 23.394 25.2938 23.0924 26.0219C22.7908 26.75 22.6356 27.5304 22.6356 28.3185C22.6356 29.1066 22.7908 29.8869 23.0924 30.615C23.394 31.3431 23.836 32.0047 24.3933 32.562C24.9506 33.1192 25.6121 33.5613 26.3402 33.8629C27.0683 34.1645 27.8487 34.3197 28.6368 34.3197C29.4249 34.3197 30.2053 34.1645 30.9334 33.8629C31.6615 33.5613 32.323 33.1192 32.8803 32.562C34.0057 31.4365 34.638 29.9101 34.638 28.3185C34.638 26.7269 34.0057 25.2004 32.8803 24.075C31.7549 22.9495 30.2284 22.3173 28.6368 22.3173C27.0452 22.3173 25.5188 22.9495 24.3933 24.075Z" fill="#B89B88"/>
</g>
<defs>
<clipPath id="clip0_5_210">
<rect width="72" height="72" fill="white" transform="translate(0.32132)"/>
</clipPath>
</defs>
</svg>
