<svg width="40" height="40" viewBox="0 0 40 40" fill="none" xmlns="http://www.w3.org/2000/svg">
<path d="M35.4167 35.3333C35.4167 37.4608 33.7108 39.1666 31.5833 39.1666C30.5667 39.1666 29.5917 38.7627 28.8728 38.0438C28.1539 37.3249 27.75 36.3499 27.75 35.3333C27.75 33.2057 29.4558 31.4999 31.5833 31.4999C32.6 31.4999 33.575 31.9038 34.2939 32.6227C35.0128 33.3416 35.4167 34.3166 35.4167 35.3333ZM12.4167 31.4999C10.2892 31.4999 8.58334 33.2057 8.58334 35.3333C8.58334 36.3499 8.98721 37.3249 9.7061 38.0438C10.425 38.7627 11.4 39.1666 12.4167 39.1666C14.5442 39.1666 16.25 37.4608 16.25 35.3333C16.25 33.2057 14.5442 31.4999 12.4167 31.4999ZM12.8 25.0408L12.7425 25.2708C12.7425 25.5391 12.9533 25.7499 13.2217 25.7499H35.4167V29.5833H12.4167C11.4 29.5833 10.425 29.1794 9.7061 28.4605C8.98721 27.7416 8.58334 26.7666 8.58334 25.7499C8.58334 25.0791 8.75584 24.4466 9.04334 23.9099L11.65 19.2141L4.75001 4.66659H0.916672V0.833252H7.18417L8.98584 4.66659H37.3333C38.3875 4.66659 39.25 5.52909 39.25 6.58325C39.25 6.90909 39.1542 7.23492 39.02 7.54158L32.1583 19.9424C31.5067 21.1116 30.2417 21.9166 28.8042 21.9166H14.525L12.8 25.0408ZM15.2917 18.0833H18.1667V14.2499H13.49L15.2917 18.0833ZM20.0833 14.2499V18.0833H25.8333V14.2499H20.0833ZM25.8333 12.3333V8.49992H20.0833V12.3333H25.8333ZM31.7942 14.2499H27.75V18.0833H29.6667L31.7942 14.2499ZM34.995 8.49992H27.75V12.3333H32.8675L34.995 8.49992ZM10.7683 8.49992L12.57 12.3333H18.1667V8.49992H10.7683Z" fill="white"/>
</svg>
