<svg width="41" height="69" viewBox="0 0 41 69" fill="none" xmlns="http://www.w3.org/2000/svg">
<path d="M7.58116 0.914795C5.72674 0.914795 3.94827 1.73135 2.63699 3.18484C1.32572 4.63832 0.58905 6.60967 0.58905 8.6652V60.3346C0.58905 62.3901 1.32572 64.3615 2.63699 65.815C3.94827 67.2684 5.72674 68.085 7.58116 68.085H33.2189C35.0733 68.085 36.8518 67.2684 38.1631 65.815C39.4743 64.3615 40.211 62.3901 40.211 60.3346V8.6652C40.211 6.60967 39.4743 4.63832 38.1631 3.18484C36.8518 1.73135 35.0733 0.914795 33.2189 0.914795L7.58116 0.914795ZM18.0693 3.49826H22.7307C23.0398 3.49826 23.3362 3.63436 23.5548 3.8766C23.7733 4.11885 23.8961 4.44741 23.8961 4.79C23.8961 5.13259 23.7733 5.46115 23.5548 5.70339C23.3362 5.94564 23.0398 6.08173 22.7307 6.08173H18.0693C17.7603 6.08173 17.4638 5.94564 17.2453 5.70339C17.0267 5.46115 16.904 5.13259 16.904 4.79C16.904 4.44741 17.0267 4.11885 17.2453 3.8766C17.4638 3.63436 17.7603 3.49826 18.0693 3.49826ZM6.41581 8.6652H34.3842C34.6933 8.6652 34.9897 8.8013 35.2083 9.04354C35.4268 9.28579 35.5496 9.61435 35.5496 9.95694V53.8759C35.5496 54.2185 35.4268 54.5471 35.2083 54.7893C34.9897 55.0316 34.6933 55.1677 34.3842 55.1677H6.41581C6.10674 55.1677 5.81033 55.0316 5.59178 54.7893C5.37323 54.5471 5.25046 54.2185 5.25046 53.8759V9.95694C5.25046 9.61435 5.37323 9.28579 5.59178 9.04354C5.81033 8.8013 6.10674 8.6652 6.41581 8.6652ZM23.7516 21.5826C22.789 21.6523 21.7122 22.3111 21.055 23.1972C20.4583 23.9981 19.9152 25.1839 20.1087 26.3465C21.1598 26.3775 22.2483 25.7109 22.8776 24.8119C23.4649 23.9748 23.9147 22.7916 23.7516 21.5826ZM17.2676 26.1837C15.8924 26.1837 14.4078 27.1809 13.4802 28.7672C12.1703 30.9941 12.3847 35.1199 14.501 38.698C15.2608 39.9743 16.3096 41.4288 17.6335 41.4443C18.8058 41.4572 19.0948 40.646 20.6914 40.6356C22.2879 40.6253 22.5722 41.4572 23.7516 41.4443C25.0708 41.4288 26.1988 39.8942 26.954 38.618C27.411 37.8531 27.8012 37.0416 28.1193 36.1947C25.0544 34.9107 24.5067 30.0408 27.5366 28.2014C26.6137 26.9252 25.3388 26.1863 24.1152 26.1863C22.4953 26.1863 21.8171 27.0724 20.6914 27.0724C19.5307 27.0724 18.6706 26.1837 17.2676 26.1837ZM20.4 58.3195C22.0455 58.3195 23.3857 59.805 23.3857 61.6289C23.3857 63.4528 22.0455 64.9383 20.4 64.9383C19.6086 64.937 18.8499 64.5879 18.2902 63.9675C17.7306 63.3472 17.4156 62.5062 17.4144 61.6289C17.4144 59.805 18.7545 58.3195 20.4 58.3195Z" fill="white"/>
</svg>
